<svg xmlns="http://www.w3.org/2000/svg" viewBox="0 0 24 24" id="Building-Real-Eastate-House-1--Streamline-Pixel" ><desc>Building Real Eastate House 1 Streamline Icon: https://streamlinehq.com</desc><title>building-real-eastate-house-1</title><g><path d="M22.86 15.997499999999999H12.5775v-1.1400000000000001h-1.1475v-2.2874999999999996h-1.1400000000000001v-2.2874999999999996h-1.1475v-2.2800000000000002h-1.1400000000000001V6.855h10.2825V5.715H5.715v1.1400000000000001H4.574999999999999V4.5675h1.1400000000000001V3.4275H0v1.1400000000000001h1.1475v10.290000000000001H0v2.2874999999999996h1.1475V24h21.7125v-6.855H24v-2.2874999999999996h-1.1400000000000001ZM2.2874999999999996 4.5675h1.1400000000000001v5.715H2.2874999999999996Zm8.0025 18.2925h-1.1475v-5.715h-1.1400000000000001v5.715H4.574999999999999v-2.2874999999999996h1.1400000000000001V19.424999999999997H4.574999999999999v-2.2800000000000002H3.4275v5.715H2.2874999999999996V14.857499999999998h1.1400000000000001v-2.2874999999999996H4.574999999999999v-2.2874999999999996h1.1400000000000001v-1.1400000000000001h1.1475v1.1400000000000001h1.1400000000000001v2.2874999999999996h1.1400000000000001v2.2874999999999996h1.1475Zm11.43 0H11.43v-5.715h10.290000000000001Z" fill="currentColor" stroke-width="0.75"></path><path d="M21.72 12.57h1.1400000000000001v2.2874999999999996h-1.1400000000000001Z" fill="currentColor" stroke-width="0.75"></path><path d="M21.72 2.2874999999999996h1.1400000000000001v1.1400000000000001h-1.1400000000000001Z" fill="currentColor" stroke-width="0.75"></path><path d="M20.572499999999998 10.2825h1.1475v2.2874999999999996h-1.1475Z" fill="currentColor" stroke-width="0.75"></path><path d="M20.572499999999998 1.1400000000000001h1.1475v1.1475h-1.1475Z" fill="currentColor" stroke-width="0.75"></path><path d="M19.4325 8.0025h1.1400000000000001v2.2800000000000002h-1.1400000000000001Z" fill="currentColor" stroke-width="0.75"></path><path d="M19.4325 3.4275h2.2874999999999996v1.1400000000000001h-2.2874999999999996Z" fill="currentColor" stroke-width="0.75"></path><path d="M18.285 0h2.2874999999999996v1.1400000000000001h-2.2874999999999996Z" fill="currentColor" stroke-width="0.75"></path><path d="M20.572499999999998 18.285h-3.4275v3.4275h3.4275Zm-1.1400000000000001 2.2874999999999996h-1.1475V19.424999999999997h1.1475Z" fill="currentColor" stroke-width="0.75"></path><path d="M18.285 6.855h1.1475v1.1475h-1.1475Z" fill="currentColor" stroke-width="0.75"></path><path d="M18.285 2.2874999999999996h1.1475v1.1400000000000001h-1.1475Z" fill="currentColor" stroke-width="0.75"></path><path d="m14.857499999999998 13.71 0 1.1475 4.574999999999999 0 0 -2.2874999999999996 -1.1475 0 0 1.1400000000000001 -3.4275 0z" fill="currentColor" stroke-width="0.75"></path><path d="M17.145 11.43h1.1400000000000001v1.1400000000000001h-1.1400000000000001Z" fill="currentColor" stroke-width="0.75"></path><path d="M17.145 1.1400000000000001h1.1400000000000001v1.1475h-1.1400000000000001Z" fill="currentColor" stroke-width="0.75"></path><path d="M16.005 18.285h-3.4275v3.4275h3.4275Zm-1.1475 2.2874999999999996h-1.1400000000000001V19.424999999999997h1.1400000000000001Z" fill="currentColor" stroke-width="0.75"></path><path d="M13.7175 12.57h1.1400000000000001v1.1400000000000001h-1.1400000000000001Z" fill="currentColor" stroke-width="0.75"></path><path d="m13.7175 11.43 3.4275 0 0 -1.1475 -4.5675 0 0 2.2874999999999996 1.1400000000000001 0 0 -1.1400000000000001z" fill="currentColor" stroke-width="0.75"></path><path d="M13.7175 1.1400000000000001h1.1400000000000001v2.2874999999999996h-1.1400000000000001Z" fill="currentColor" stroke-width="0.75"></path><path d="M11.43 0h2.2874999999999996v1.1400000000000001h-2.2874999999999996Z" fill="currentColor" stroke-width="0.75"></path><path d="M8.0025 3.4275h5.715v1.1400000000000001h-5.715Z" fill="currentColor" stroke-width="0.75"></path><path d="M10.290000000000001 1.1400000000000001h1.1400000000000001v1.1475h-1.1400000000000001Z" fill="currentColor" stroke-width="0.75"></path><path d="M8.0025 0h2.2874999999999996v1.1400000000000001h-2.2874999999999996Z" fill="currentColor" stroke-width="0.75"></path><path d="M4.574999999999999 15.997499999999999h3.4275v1.1475H4.574999999999999Z" fill="currentColor" stroke-width="0.75"></path><path d="M6.862500000000001 1.1400000000000001h1.1400000000000001v2.2874999999999996H6.862500000000001Z" fill="currentColor" stroke-width="0.75"></path><path d="M4.574999999999999 0h1.1400000000000001v1.1400000000000001H4.574999999999999Z" fill="currentColor" stroke-width="0.75"></path><path d="M2.2874999999999996 1.1400000000000001h1.1400000000000001v1.1475H2.2874999999999996Z" fill="currentColor" stroke-width="0.75"></path></g></svg>