<svg xmlns="http://www.w3.org/2000/svg" viewBox="0 0 24 24" id="Coding-Apps-Websites-Database--Streamline-Pixel" ><desc>Coding Apps Websites Database Streamline Icon: https://streamlinehq.com</desc><title>coding-apps-websites-database</title><g><path d="m21.142500000000002 20.572499999999998 1.1475 0 0 -1.1400000000000001 1.1400000000000001 0 0 -14.857499999999998 -1.1400000000000001 0 0 1.1400000000000001 -1.1475 0 0 1.1400000000000001 -3.4275 0 0 1.1475 -11.43 0 0 1.1400000000000001 10.290000000000001 0 0 5.715 1.1400000000000001 0 0 -1.1400000000000001 3.4275 0 0 -1.1475 1.1475 0 0 1.1475 -1.1475 0 0 1.1400000000000001 -3.4275 0 0 1.1400000000000001 -1.1400000000000001 0 0 5.715 -10.290000000000001 0 0 1.1475 11.43 0 0 -1.1475 3.4275 0 0 -1.1400000000000001z" fill="currentColor" stroke-width="0.75"></path><path d="M20.0025 3.4275h2.2874999999999996V4.574999999999999h-2.2874999999999996Z" fill="currentColor" stroke-width="0.75"></path><path d="M16.575000000000003 2.2874999999999996h3.4275v1.1400000000000001H16.575000000000003Z" fill="currentColor" stroke-width="0.75"></path><path d="M6.285 14.857499999999998H16.575000000000003v1.1400000000000001H6.285Z" fill="currentColor" stroke-width="0.75"></path><path d="M7.4325 18.285h3.4275v1.1475H7.4325Z" fill="currentColor" stroke-width="0.75"></path><path d="M7.4325 11.43h3.4275v1.1400000000000001H7.4325Z" fill="currentColor" stroke-width="0.75"></path><path d="M7.4325 1.1400000000000001H16.575000000000003v1.1475H7.4325Z" fill="currentColor" stroke-width="0.75"></path><path d="M2.8575 20.572499999999998h3.4275v1.1400000000000001H2.8575Z" fill="currentColor" stroke-width="0.75"></path><path d="M2.8575 13.7175h3.4275v1.1400000000000001H2.8575Z" fill="currentColor" stroke-width="0.75"></path><path d="M2.8575 6.855h3.4275v1.1475H2.8575Z" fill="currentColor" stroke-width="0.75"></path><path d="M3.9975 2.2874999999999996h3.435v1.1400000000000001H3.9975Z" fill="currentColor" stroke-width="0.75"></path><path d="M2.8575 15.997499999999999h2.2874999999999996v2.2874999999999996H2.8575Z" fill="currentColor" stroke-width="0.75"></path><path d="M2.8575 9.1425h2.2874999999999996v2.2874999999999996H2.8575Z" fill="currentColor" stroke-width="0.75"></path><path d="M1.7175 3.4275h2.2800000000000002V4.574999999999999H1.7175Z" fill="currentColor" stroke-width="0.75"></path><path d="M1.7175 19.4325h1.1400000000000001v1.1400000000000001H1.7175Z" fill="currentColor" stroke-width="0.75"></path><path d="m1.7175 13.7175 1.1400000000000001 0 0 -1.1475 -1.1400000000000001 0 0 -5.715 1.1400000000000001 0 0 -1.1400000000000001 -1.1400000000000001 0 0 -1.1400000000000001 -1.1475 0 0 14.857499999999998 1.1475 0 0 -5.715z" fill="currentColor" stroke-width="0.75"></path></g></svg>