<svg xmlns="http://www.w3.org/2000/svg" viewBox="0 0 24 24" id="Coding-Apps-Websites-Programming-Hold-Code--Streamline-Pixel" ><desc>Coding Apps Websites Programming Hold Code Streamline Icon: https://streamlinehq.com</desc><title>coding-apps-websites-programming-hold-code</title><g><path d="M22.86 12.00375H24v5.715h-1.1400000000000001Z" fill="currentColor" stroke-width="0.75"></path><path d="M21.7125 17.71875h1.1475v2.2800000000000002h-1.1475Z" fill="currentColor" stroke-width="0.75"></path><path d="M21.7125 9.71625h1.1475v2.2874999999999996h-1.1475Z" fill="currentColor" stroke-width="0.75"></path><path d="M20.572499999999998 19.99875h1.1400000000000001v2.2874999999999996h-1.1400000000000001Z" fill="currentColor" stroke-width="0.75"></path><path d="M20.572499999999998 8.568750000000001h1.1400000000000001v1.1475h-1.1400000000000001Z" fill="currentColor" stroke-width="0.75"></path><path d="M19.424999999999997 22.28625h1.1475v1.1400000000000001H19.424999999999997Z" fill="currentColor" stroke-width="0.75"></path><path d="M19.424999999999997 15.431249999999999h1.1475v2.2874999999999996H19.424999999999997Z" fill="currentColor" stroke-width="0.75"></path><path d="M19.424999999999997 12.00375h1.1475v2.2800000000000002H19.424999999999997Z" fill="currentColor" stroke-width="0.75"></path><path d="M19.424999999999997 7.428749999999999h1.1475v1.1400000000000001H19.424999999999997Z" fill="currentColor" stroke-width="0.75"></path><path d="M18.285 17.71875h1.1400000000000001v1.1400000000000001h-1.1400000000000001Z" fill="currentColor" stroke-width="0.75"></path><path d="M18.285 8.568750000000001h1.1400000000000001v3.435h-1.1400000000000001Z" fill="currentColor" stroke-width="0.75"></path><path d="M18.285 4.00125h1.1400000000000001v1.1400000000000001h-1.1400000000000001Z" fill="currentColor" stroke-width="0.75"></path><path d="M17.145 18.85875h1.1400000000000001v1.1400000000000001h-1.1400000000000001Z" fill="currentColor" stroke-width="0.75"></path><path d="M17.145 14.283750000000001h2.2800000000000002v1.1475h-2.2800000000000002Z" fill="currentColor" stroke-width="0.75"></path><path d="M17.145 5.14125h1.1400000000000001v1.1475h-1.1400000000000001Z" fill="currentColor" stroke-width="0.75"></path><path d="M17.145 2.86125h1.1400000000000001v1.1400000000000001h-1.1400000000000001Z" fill="currentColor" stroke-width="0.75"></path><path d="M15.997499999999999 15.431249999999999h1.1475v1.1400000000000001h-1.1475Z" fill="currentColor" stroke-width="0.75"></path><path d="M15.997499999999999 6.28875h1.1475v1.1400000000000001h-1.1475Z" fill="currentColor" stroke-width="0.75"></path><path d="M15.997499999999999 1.71375h1.1475v1.1475h-1.1475Z" fill="currentColor" stroke-width="0.75"></path><path d="M14.857499999999998 22.28625h1.1400000000000001v1.1400000000000001h-1.1400000000000001Z" fill="currentColor" stroke-width="0.75"></path><path d="M14.857499999999998 16.57125h1.1400000000000001v1.1475h-1.1400000000000001Z" fill="currentColor" stroke-width="0.75"></path><path d="M14.857499999999998 7.428749999999999h1.1400000000000001v1.1400000000000001h-1.1400000000000001Z" fill="currentColor" stroke-width="0.75"></path><path d="M14.857499999999998 0.57375h1.1400000000000001v1.1400000000000001h-1.1400000000000001Z" fill="currentColor" stroke-width="0.75"></path><path d="M13.7175 17.71875h1.1400000000000001v4.5675h-1.1400000000000001Z" fill="currentColor" stroke-width="0.75"></path><path d="M12.57 0.57375h1.1475v2.2874999999999996h-1.1475Z" fill="currentColor" stroke-width="0.75"></path><path d="M11.43 2.86125h1.1400000000000001v3.4275h-1.1400000000000001Z" fill="currentColor" stroke-width="0.75"></path><path d="M10.2825 6.28875h1.1475v2.2800000000000002h-1.1475Z" fill="currentColor" stroke-width="0.75"></path><path d="M9.1425 17.71875h1.1400000000000001v4.5675h-1.1400000000000001Z" fill="currentColor" stroke-width="0.75"></path><path d="M8.0025 22.28625h1.1400000000000001v1.1400000000000001h-1.1400000000000001Z" fill="currentColor" stroke-width="0.75"></path><path d="M8.0025 16.57125h1.1400000000000001v1.1475h-1.1400000000000001Z" fill="currentColor" stroke-width="0.75"></path><path d="M8.0025 7.428749999999999h1.1400000000000001v1.1400000000000001h-1.1400000000000001Z" fill="currentColor" stroke-width="0.75"></path><path d="M8.0025 0.57375h1.1400000000000001v1.1400000000000001h-1.1400000000000001Z" fill="currentColor" stroke-width="0.75"></path><path d="M6.855 15.431249999999999h1.1475v1.1400000000000001H6.855Z" fill="currentColor" stroke-width="0.75"></path><path d="M6.855 6.28875h1.1475v1.1400000000000001H6.855Z" fill="currentColor" stroke-width="0.75"></path><path d="M6.855 1.71375h1.1475v1.1475H6.855Z" fill="currentColor" stroke-width="0.75"></path><path d="M5.715 18.85875h1.1400000000000001v1.1400000000000001H5.715Z" fill="currentColor" stroke-width="0.75"></path><path d="M4.574999999999999 14.283750000000001h2.2800000000000002v1.1475H4.574999999999999Z" fill="currentColor" stroke-width="0.75"></path><path d="M5.715 5.14125h1.1400000000000001v1.1475H5.715Z" fill="currentColor" stroke-width="0.75"></path><path d="M5.715 2.86125h1.1400000000000001v1.1400000000000001H5.715Z" fill="currentColor" stroke-width="0.75"></path><path d="M4.574999999999999 17.71875h1.1400000000000001v1.1400000000000001H4.574999999999999Z" fill="currentColor" stroke-width="0.75"></path><path d="M4.574999999999999 8.568750000000001h1.1400000000000001v3.435H4.574999999999999Z" fill="currentColor" stroke-width="0.75"></path><path d="M4.574999999999999 4.00125h1.1400000000000001v1.1400000000000001H4.574999999999999Z" fill="currentColor" stroke-width="0.75"></path><path d="M3.4275 22.28625H4.574999999999999v1.1400000000000001H3.4275Z" fill="currentColor" stroke-width="0.75"></path><path d="M3.4275 15.431249999999999H4.574999999999999v2.2874999999999996H3.4275Z" fill="currentColor" stroke-width="0.75"></path><path d="M3.4275 12.00375H4.574999999999999v2.2800000000000002H3.4275Z" fill="currentColor" stroke-width="0.75"></path><path d="M3.4275 7.428749999999999H4.574999999999999v1.1400000000000001H3.4275Z" fill="currentColor" stroke-width="0.75"></path><path d="M2.2874999999999996 19.99875h1.1400000000000001v2.2874999999999996H2.2874999999999996Z" fill="currentColor" stroke-width="0.75"></path><path d="M2.2874999999999996 8.568750000000001h1.1400000000000001v1.1475H2.2874999999999996Z" fill="currentColor" stroke-width="0.75"></path><path d="M1.1400000000000001 17.71875h1.1475v2.2800000000000002H1.1400000000000001Z" fill="currentColor" stroke-width="0.75"></path><path d="M1.1400000000000001 9.71625h1.1475v2.2874999999999996H1.1400000000000001Z" fill="currentColor" stroke-width="0.75"></path><path d="M0 12.00375h1.1400000000000001v5.715H0Z" fill="currentColor" stroke-width="0.75"></path></g></svg>