<svg xmlns="http://www.w3.org/2000/svg" viewBox="0 0 24 24" id="Coding-Apps-Websites-Conference--Streamline-Pixel" ><desc>Coding Apps Websites Conference Streamline Icon: https://streamlinehq.com</desc><title>coding-apps-websites-conference</title><g><path d="M1.1400000000000001 18.285h21.7125v1.1400000000000001H24v-2.2800000000000002h-2.2874999999999996V4.5675h-1.1475v12.5775H19.424999999999997v-1.1475h-1.1400000000000001v1.1475h-6.862500000000001v-1.1475h-1.1400000000000001v1.1475h-1.1400000000000001V4.5675h11.4225V3.4275H3.4275v1.1400000000000001h4.5675v4.574999999999999H3.4275v-4.574999999999999H2.2800000000000002v12.5775H0v2.2800000000000002h1.1400000000000001Zm2.2874999999999996 -6.855h4.5675v4.5675H3.4275Z" fill="currentColor" stroke-width="0.75"></path><path d="M1.1400000000000001 19.424999999999997h21.7125v1.1475H1.1400000000000001Z" fill="currentColor" stroke-width="0.75"></path><path d="M15.997499999999999 14.857499999999998h2.2874999999999996v1.1400000000000001h-2.2874999999999996Z" fill="currentColor" stroke-width="0.75"></path><path d="M15.997499999999999 12.57h1.1400000000000001v1.1400000000000001h-1.1400000000000001Z" fill="currentColor" stroke-width="0.75"></path><path d="M13.71 13.71h2.2874999999999996v1.1475h-2.2874999999999996Z" fill="currentColor" stroke-width="0.75"></path><path d="M11.4225 14.857499999999998h2.2874999999999996v1.1400000000000001h-2.2874999999999996Z" fill="currentColor" stroke-width="0.75"></path><path d="M12.57 12.57h1.1400000000000001v1.1400000000000001h-1.1400000000000001Z" fill="currentColor" stroke-width="0.75"></path><path d="m17.137500000000003 10.2825 0 2.2874999999999996 1.1475 0 0 -3.4275 -1.1475 0 0 -1.1475 -1.1400000000000001 0 0 -1.1400000000000001 -2.2874999999999996 0 0 1.1400000000000001 -1.1400000000000001 0 0 1.1475 -1.1475 0 0 3.4275 1.1475 0 0 -2.2874999999999996 4.5675 0z" fill="currentColor" stroke-width="0.75"></path><path d="M4.5675 13.71h2.2874999999999996v1.1475H4.5675Z" fill="currentColor" stroke-width="0.75"></path><path d="M4.5675 6.855h2.2874999999999996v1.1400000000000001H4.5675Z" fill="currentColor" stroke-width="0.75"></path></g></svg>