<svg xmlns="http://www.w3.org/2000/svg" viewBox="0 0 24 24" id="Coding-Apps-Websites-Solves--Streamline-Pixel"><desc>Coding Apps Websites Solves Streamline Icon: https://streamlinehq.com</desc><title>coding-apps-websites-solves</title><g><path d="M21.138749999999998 7.428749999999999h1.1475v13.7175h-1.1475Z" fill="currentColor" stroke-width="0.75"></path><path d="M19.99875 21.146250000000002h1.1400000000000001v1.1400000000000001h-1.1400000000000001Z" fill="currentColor" stroke-width="0.75"></path><path d="M19.99875 6.28875h1.1400000000000001v1.1400000000000001h-1.1400000000000001Z" fill="currentColor" stroke-width="0.75"></path><path d="M4.00125 22.28625h15.997499999999999v1.1400000000000001H4.00125Z" fill="currentColor" stroke-width="0.75"></path><path d="M15.423750000000002 5.14125h4.574999999999999v1.1475h-4.574999999999999Z" fill="currentColor" stroke-width="0.75"></path><path d="M14.283750000000001 2.8537500000000002h1.1400000000000001v2.2874999999999996h-1.1400000000000001Z" fill="currentColor" stroke-width="0.75"></path><path d="M13.143749999999999 1.71375h1.1400000000000001v1.1400000000000001h-1.1400000000000001Z" fill="currentColor" stroke-width="0.75"></path><path d="M10.85625 0.57375h2.2874999999999996v1.1400000000000001h-2.2874999999999996Z" fill="currentColor" stroke-width="0.75"></path><path d="M9.70875 1.71375h1.1475v1.1400000000000001h-1.1475Z" fill="currentColor" stroke-width="0.75"></path><path d="M8.568750000000001 2.8537500000000002h1.1400000000000001v2.2874999999999996h-1.1400000000000001Z" fill="currentColor" stroke-width="0.75"></path><path d="M6.28125 13.143749999999999h1.1475v2.2874999999999996h-1.1475Z" fill="currentColor" stroke-width="0.75"></path><path d="M5.14125 15.431249999999999h1.1400000000000001v1.1400000000000001h-1.1400000000000001Z" fill="currentColor" stroke-width="0.75"></path><path d="M5.14125 11.99625h1.1400000000000001v1.1475h-1.1400000000000001Z" fill="currentColor" stroke-width="0.75"></path><path d="M4.00125 5.14125h4.5675v1.1475h-4.5675Z" fill="currentColor" stroke-width="0.75"></path><path d="m2.8537500000000002 10.85625 0 -3.4275 -1.1400000000000001 0 0 4.5675 3.4275 0 0 -1.1400000000000001 -2.2874999999999996 0z" fill="currentColor" stroke-width="0.75"></path><path d="M2.8537500000000002 21.146250000000002h1.1475v1.1400000000000001h-1.1475Z" fill="currentColor" stroke-width="0.75"></path><path d="M2.8537500000000002 6.28875h1.1475v1.1400000000000001h-1.1475Z" fill="currentColor" stroke-width="0.75"></path><path d="m2.8537500000000002 17.71125 2.2874999999999996 0 0 -1.1400000000000001 -3.4275 0 0 4.574999999999999 1.1400000000000001 0 0 -3.435z" fill="currentColor" stroke-width="0.75"></path></g></svg>