<svg xmlns="http://www.w3.org/2000/svg" viewBox="0 0 24 24" id="Coding-App-Website-Ui--Streamline-Pixel" ><desc>Coding App Website Ui Streamline Icon: https://streamlinehq.com</desc><title>coding-app-website-ui</title><g><path d="m1.1400000000000001 5.715 21.72 0 0 17.137500000000003 1.1400000000000001 0 0 -21.7125 -1.1400000000000001 0 0 3.4275 -21.72 0 0 -3.4275 -1.1400000000000001 0 0 21.7125 1.1400000000000001 0 0 -17.137500000000003z" fill="currentColor" stroke-width="0.75"></path><path d="M1.1400000000000001 22.8525h21.72V24H1.1400000000000001Z" fill="currentColor" stroke-width="0.75"></path><path d="M15.997499999999999 19.424999999999997h4.574999999999999v1.1475h-4.574999999999999Z" fill="currentColor" stroke-width="0.75"></path><path d="M15.997499999999999 17.137500000000003h4.574999999999999v1.1475h-4.574999999999999Z" fill="currentColor" stroke-width="0.75"></path><path d="M3.4275 7.995v6.862500000000001h17.145v-6.862500000000001Zm15.997499999999999 5.715H11.43v-1.1400000000000001h-1.1475v1.1400000000000001H4.5675v-4.5675h11.43v1.1400000000000001h1.1475v-1.1400000000000001h2.2800000000000002Z" fill="currentColor" stroke-width="0.75"></path><path d="M13.7175 10.2825h2.2800000000000002v1.1400000000000001h-2.2800000000000002Z" fill="currentColor" stroke-width="0.75"></path><path d="M11.43 11.4225h2.2874999999999996v1.1475h-2.2874999999999996Z" fill="currentColor" stroke-width="0.75"></path><path d="M3.4275 19.424999999999997h9.1425v1.1475H3.4275Z" fill="currentColor" stroke-width="0.75"></path><path d="M3.4275 17.137500000000003h9.1425v1.1475H3.4275Z" fill="currentColor" stroke-width="0.75"></path><path d="M6.855 2.2800000000000002h1.1475v1.1475H6.855Z" fill="currentColor" stroke-width="0.75"></path><path d="M5.715 10.2825h2.2874999999999996v2.2874999999999996H5.715Z" fill="currentColor" stroke-width="0.75"></path><path d="M4.5675 2.2800000000000002h1.1475v1.1475H4.5675Z" fill="currentColor" stroke-width="0.75"></path><path d="M2.2874999999999996 2.2800000000000002h1.1400000000000001v1.1475H2.2874999999999996Z" fill="currentColor" stroke-width="0.75"></path><path d="M1.1400000000000001 0h21.72v1.1400000000000001H1.1400000000000001Z" fill="currentColor" stroke-width="0.75"></path></g></svg>