<svg xmlns="http://www.w3.org/2000/svg" viewBox="0 0 24 24" id="Design-Color-Brush-Paint--Streamline-Pixel" ><desc>Design Color Brush Paint Streamline Icon: https://streamlinehq.com</desc><title>design-color-brush-paint</title><g><path d="M22.86 1.1400000000000001H24v3.4275h-1.1400000000000001Z" fill="currentColor" stroke-width="0.75"></path><path d="M21.7125 4.5675h1.1475v2.2874999999999996h-1.1475Z" fill="currentColor" stroke-width="0.75"></path><path d="M20.572499999999998 0h2.2874999999999996v1.1400000000000001h-2.2874999999999996Z" fill="currentColor" stroke-width="0.75"></path><path d="M20.572499999999998 6.855h1.1400000000000001v2.2874999999999996h-1.1400000000000001Z" fill="currentColor" stroke-width="0.75"></path><path d="M19.424999999999997 9.1425h1.1475v2.2874999999999996H19.424999999999997Z" fill="currentColor" stroke-width="0.75"></path><path d="M19.424999999999997 1.1400000000000001h1.1475v2.2874999999999996H19.424999999999997Z" fill="currentColor" stroke-width="0.75"></path><path d="M18.285 11.43h1.1400000000000001v2.2800000000000002h-1.1400000000000001Z" fill="currentColor" stroke-width="0.75"></path><path d="M18.285 3.4275h1.1400000000000001v2.2874999999999996h-1.1400000000000001Z" fill="currentColor" stroke-width="0.75"></path><path d="M17.145 17.145h1.1400000000000001v3.4275h-1.1400000000000001Z" fill="currentColor" stroke-width="0.75"></path><path d="M17.145 13.71h1.1400000000000001v2.2874999999999996h-1.1400000000000001Z" fill="currentColor" stroke-width="0.75"></path><path d="M17.145 5.715h1.1400000000000001v2.2874999999999996h-1.1400000000000001Z" fill="currentColor" stroke-width="0.75"></path><path d="M15.997499999999999 8.0025h1.1475v2.2800000000000002h-1.1475Z" fill="currentColor" stroke-width="0.75"></path><path d="m15.997499999999999 19.424999999999997 -1.1400000000000001 0 0 1.1475 -1.1400000000000001 0 0 -1.1475 -1.1475 0 0 -1.1400000000000001 -1.1400000000000001 0 0 1.1400000000000001 -1.1475 0 0 -2.2800000000000002 -1.1400000000000001 0 0 3.4275 -1.1400000000000001 0 0 1.1400000000000001 -1.1475 0 0 1.1400000000000001 -5.715 0 0 1.1475 12.5775 0 0 -1.1475 2.2800000000000002 0 0 -1.1400000000000001 1.1475 0 0 -1.1400000000000001 -1.1475 0 0 -1.1475z" fill="currentColor" stroke-width="0.75"></path><path d="M14.857499999999998 15.997499999999999h2.2874999999999996v1.1475h-2.2874999999999996Z" fill="currentColor" stroke-width="0.75"></path><path d="M14.857499999999998 10.2825h1.1400000000000001v2.2874999999999996h-1.1400000000000001Z" fill="currentColor" stroke-width="0.75"></path><path d="m14.857499999999998 15.997499999999999 0 -3.4275 -1.1400000000000001 0 0 2.2874999999999996 -2.2874999999999996 0 0 1.1400000000000001 3.4275 0z" fill="currentColor" stroke-width="0.75"></path><path d="M10.2825 15.997499999999999h1.1475v1.1475h-1.1475Z" fill="currentColor" stroke-width="0.75"></path><path d="M10.2825 9.1425h1.1475v1.1400000000000001h-1.1475Z" fill="currentColor" stroke-width="0.75"></path><path d="M9.1425 10.2825h1.1400000000000001v1.1475h-1.1400000000000001Z" fill="currentColor" stroke-width="0.75"></path><path d="M1.1400000000000001 8.0025h9.1425v1.1400000000000001H1.1400000000000001Z" fill="currentColor" stroke-width="0.75"></path><path d="M6.855 17.145h1.1475v1.1400000000000001H6.855Z" fill="currentColor" stroke-width="0.75"></path><path d="M5.715 11.43h3.4275v1.1400000000000001H5.715Z" fill="currentColor" stroke-width="0.75"></path><path d="M5.715 18.285h1.1400000000000001v1.1400000000000001H5.715Z" fill="currentColor" stroke-width="0.75"></path><path d="M3.4275 15.997499999999999h3.4275v1.1475H3.4275Z" fill="currentColor" stroke-width="0.75"></path><path d="M3.4275 12.57h2.2874999999999996v1.1400000000000001H3.4275Z" fill="currentColor" stroke-width="0.75"></path><path d="M2.2874999999999996 19.424999999999997h3.4275v1.1475H2.2874999999999996Z" fill="currentColor" stroke-width="0.75"></path><path d="M2.2874999999999996 13.71h1.1400000000000001v2.2874999999999996H2.2874999999999996Z" fill="currentColor" stroke-width="0.75"></path><path d="M1.1400000000000001 20.572499999999998h1.1475v1.1400000000000001H1.1400000000000001Z" fill="currentColor" stroke-width="0.75"></path><path d="M0 21.7125h1.1400000000000001v1.1400000000000001H0Z" fill="currentColor" stroke-width="0.75"></path></g></svg>