<svg xmlns="http://www.w3.org/2000/svg" viewBox="0 0 24 24" id="Internet-Network-Cloud-Off--Streamline-Pixel" ><desc>Internet Network Cloud Off Streamline Icon: https://streamlinehq.com</desc><title>internet-network-cloud-off</title><g><path d="M22.8525 11.43H24v4.5675h-1.1475Z" fill="currentColor" stroke-width="0.75"></path><path d="m22.8525 20.572499999999998 -1.1400000000000001 0 0 -1.1475 -1.1400000000000001 0 0 -1.1400000000000001 -1.1475 0 0 -1.1400000000000001 -1.1400000000000001 0 0 -1.1475 -1.1475 0 0 -1.1400000000000001 -1.1400000000000001 0 0 -1.1475 -1.1400000000000001 0 0 -1.1400000000000001 -1.1475 0 0 -1.1400000000000001 -1.1400000000000001 0 0 -1.1475 -1.1400000000000001 0 0 -1.1400000000000001 -1.1475 0 0 -1.1400000000000001 -1.1400000000000001 0 0 -1.1475 -1.1475 0 0 -1.1400000000000001 -1.1400000000000001 0 0 -1.1475 -1.1400000000000001 0 0 -1.1400000000000001 -1.1475 0 0 -1.1400000000000001 -1.1400000000000001 0 0 -1.1475 -1.1400000000000001 0 0 -1.1400000000000001L0 0l0 2.2874999999999996 1.1400000000000001 0 0 1.1400000000000001 1.1475 0 0 1.1400000000000001 1.1400000000000001 0 0 1.1475 1.1400000000000001 0 0 1.1400000000000001 1.1475 0 0 1.1475 1.1400000000000001 0 0 1.1400000000000001 1.1400000000000001 0 0 1.1400000000000001 1.1475 0 0 1.1475 1.1400000000000001 0 0 1.1400000000000001 1.1475 0 0 1.1400000000000001 1.1400000000000001 0 0 1.1475 1.1400000000000001 0 0 1.1400000000000001 1.1475 0 0 1.1475 1.1400000000000001 0 0 1.1400000000000001 1.1400000000000001 0 0 1.1400000000000001 1.1475 0 0 1.1475 1.1400000000000001 0 0 1.1400000000000001 1.1475 0 0 1.1475 1.1400000000000001 0 0 1.1400000000000001L24 24l0 -2.2874999999999996 -1.1475 0 0 -1.1400000000000001z" fill="currentColor" stroke-width="0.75"></path><path d="M21.7125 15.997499999999999h1.1400000000000001v1.1475h-1.1400000000000001Z" fill="currentColor" stroke-width="0.75"></path><path d="M21.7125 10.2825h1.1400000000000001v1.1475h-1.1400000000000001Z" fill="currentColor" stroke-width="0.75"></path><path d="M20.572499999999998 9.1425h1.1400000000000001v1.1400000000000001h-1.1400000000000001Z" fill="currentColor" stroke-width="0.75"></path><path d="m18.285 8.0025 0 -1.1475 -1.1475 0 0 2.2874999999999996 3.435 0 0 -1.1400000000000001 -2.2874999999999996 0z" fill="currentColor" stroke-width="0.75"></path><path d="M15.997499999999999 9.1425h1.1400000000000001v1.1400000000000001h-1.1400000000000001Z" fill="currentColor" stroke-width="0.75"></path><path d="M15.997499999999999 5.715h1.1400000000000001v1.1400000000000001h-1.1400000000000001Z" fill="currentColor" stroke-width="0.75"></path><path d="M14.857499999999998 10.2825h1.1400000000000001v1.1475h-1.1400000000000001Z" fill="currentColor" stroke-width="0.75"></path><path d="M13.71 4.5675h2.2874999999999996v1.1475h-2.2874999999999996Z" fill="currentColor" stroke-width="0.75"></path><path d="M2.2874999999999996 18.285h12.57v1.1400000000000001H2.2874999999999996Z" fill="currentColor" stroke-width="0.75"></path><path d="M10.2825 3.4275h3.4275v1.1400000000000001h-3.4275Z" fill="currentColor" stroke-width="0.75"></path><path d="M9.1425 4.5675h1.1400000000000001v1.1475h-1.1400000000000001Z" fill="currentColor" stroke-width="0.75"></path><path d="M2.2874999999999996 9.1425h3.4275v1.1400000000000001H2.2874999999999996Z" fill="currentColor" stroke-width="0.75"></path><path d="M1.1400000000000001 17.145h1.1475v1.1400000000000001H1.1400000000000001Z" fill="currentColor" stroke-width="0.75"></path><path d="M1.1400000000000001 10.2825h1.1475v1.1475H1.1400000000000001Z" fill="currentColor" stroke-width="0.75"></path><path d="M0 11.43h1.1400000000000001v5.715H0Z" fill="currentColor" stroke-width="0.75"></path></g></svg>