<svg xmlns="http://www.w3.org/2000/svg" viewBox="0 0 24 24" id="Interface-Essential-Text-Input-Area-3--Streamline-Pixel" ><desc>Interface Essential Text Input Area 3 Streamline Icon: https://streamlinehq.com</desc><title>interface-essential-text-input-area-3</title><g><path d="M22.86 11.99625H24v3.435h-1.1400000000000001Z" fill="currentColor" stroke-width="0.75"></path><path d="M22.86 8.568750000000001H24v2.2874999999999996h-1.1400000000000001Z" fill="currentColor" stroke-width="0.75"></path><path d="M21.7125 15.431249999999999h1.1475v1.1400000000000001h-1.1475Z" fill="currentColor" stroke-width="0.75"></path><path d="M21.7125 7.428749999999999h1.1475v1.1400000000000001h-1.1475Z" fill="currentColor" stroke-width="0.75"></path><path d="M20.572499999999998 16.57125h1.1400000000000001v1.1400000000000001h-1.1400000000000001Z" fill="currentColor" stroke-width="0.75"></path><path d="M20.572499999999998 6.28875h1.1400000000000001v1.1400000000000001h-1.1400000000000001Z" fill="currentColor" stroke-width="0.75"></path><path d="M19.4325 4.00125h2.2800000000000002v1.1400000000000001h-2.2800000000000002Z" fill="currentColor" stroke-width="0.75"></path><path d="M19.4325 18.85875h2.2800000000000002v1.1400000000000001h-2.2800000000000002Z" fill="currentColor" stroke-width="0.75"></path><path d="M18.285 5.14125h1.1475v13.7175h-1.1475Z" fill="currentColor" stroke-width="0.75"></path><path d="M16.005 4.00125h2.2800000000000002v1.1400000000000001h-2.2800000000000002Z" fill="currentColor" stroke-width="0.75"></path><path d="M16.005 18.85875h2.2800000000000002v1.1400000000000001h-2.2800000000000002Z" fill="currentColor" stroke-width="0.75"></path><path d="M13.7175 16.57125h3.4275v1.1400000000000001h-3.4275Z" fill="currentColor" stroke-width="0.75"></path><path d="M16.005 14.283750000000001h1.1400000000000001v1.1475h-1.1400000000000001Z" fill="currentColor" stroke-width="0.75"></path><path d="M16.005 10.85625h1.1400000000000001v1.1400000000000001h-1.1400000000000001Z" fill="currentColor" stroke-width="0.75"></path><path d="M14.857499999999998 11.99625h1.1475v2.2874999999999996h-1.1475Z" fill="currentColor" stroke-width="0.75"></path><path d="M13.7175 6.28875h3.4275v1.1400000000000001h-3.4275Z" fill="currentColor" stroke-width="0.75"></path><path d="M12.57 11.99625h1.1475v2.2874999999999996h-1.1475Z" fill="currentColor" stroke-width="0.75"></path><path d="M9.1425 16.57125h3.4275v1.1400000000000001h-3.4275Z" fill="currentColor" stroke-width="0.75"></path><path d="m10.290000000000001 11.99625 2.2800000000000002 0 0 -1.1400000000000001 -2.2800000000000002 0 0 -2.2874999999999996 -1.1475 0 0 6.862500000000001 3.4275 0 0 -1.1475 -2.2800000000000002 0 0 -2.2874999999999996z" fill="currentColor" stroke-width="0.75"></path><path d="M9.1425 6.28875h3.4275v1.1400000000000001h-3.4275Z" fill="currentColor" stroke-width="0.75"></path><path d="m8.0025 9.71625 -1.1400000000000001 0 0 2.2800000000000002 -2.2874999999999996 0 0 -2.2800000000000002 -1.1475 0 0 5.715 1.1475 0 0 -2.2874999999999996 2.2874999999999996 0 0 2.2874999999999996 1.1400000000000001 0 0 -5.715z" fill="currentColor" stroke-width="0.75"></path><path d="M4.574999999999999 16.57125h3.4275v1.1400000000000001H4.574999999999999Z" fill="currentColor" stroke-width="0.75"></path><path d="M4.574999999999999 8.568750000000001h2.2874999999999996v1.1475H4.574999999999999Z" fill="currentColor" stroke-width="0.75"></path><path d="M4.574999999999999 6.28875h3.4275v1.1400000000000001H4.574999999999999Z" fill="currentColor" stroke-width="0.75"></path><path d="M2.2874999999999996 16.57125h1.1400000000000001v1.1400000000000001H2.2874999999999996Z" fill="currentColor" stroke-width="0.75"></path><path d="M2.2874999999999996 6.28875h1.1400000000000001v1.1400000000000001H2.2874999999999996Z" fill="currentColor" stroke-width="0.75"></path><path d="M1.1475 15.431249999999999h1.1400000000000001v1.1400000000000001H1.1475Z" fill="currentColor" stroke-width="0.75"></path><path d="M1.1475 7.428749999999999h1.1400000000000001v1.1400000000000001H1.1475Z" fill="currentColor" stroke-width="0.75"></path><path d="M0 11.99625h1.1475v3.435H0Z" fill="currentColor" stroke-width="0.75"></path><path d="M0 8.568750000000001h1.1475v2.2874999999999996H0Z" fill="currentColor" stroke-width="0.75"></path></g></svg>