<svg xmlns="http://www.w3.org/2000/svg" viewBox="0 0 24 24" id="Interface-Essential-Home-2--Streamline-Pixel" ><desc>Interface Essential Home 2 Streamline Icon: https://streamlinehq.com</desc><title>interface-essential-home-2</title><g><path d="m0.57375 12.57 2.2800000000000002 0 0 -1.1400000000000001 1.1475 0 0 -1.1475 1.1400000000000001 0 0 -1.1400000000000001 1.1475 0 0 -1.1400000000000001 1.1400000000000001 0 0 -1.1475 1.1400000000000001 0 0 -1.1400000000000001 1.1475 0 0 -1.1475 1.1400000000000001 0 0 -1.1400000000000001 2.2874999999999996 0 0 1.1400000000000001 1.1400000000000001 0 0 1.1475 1.1475 0 0 1.1400000000000001 1.1400000000000001 0 0 1.1475 1.1400000000000001 0 0 1.1400000000000001 1.1475 0 0 1.1400000000000001 1.1400000000000001 0 0 1.1475 1.1400000000000001 0 0 1.1400000000000001 2.2874999999999996 0 0 -2.2874999999999996 -1.1400000000000001 0 0 -1.1400000000000001 -1.1475 0 0 -1.1400000000000001 -1.1400000000000001 0 0 -1.1475 -1.1400000000000001 0 0 -1.1400000000000001 -1.1475 0 0 -1.1475 -1.1400000000000001 0 0 -1.1400000000000001 -1.1400000000000001 0 0 -1.1400000000000001 -1.1475 0 0 -1.1475 -1.1400000000000001 0 0 -1.1400000000000001 -2.2874999999999996 0 0 1.1400000000000001 -1.1400000000000001 0 0 1.1475 -1.1475 0 0 1.1400000000000001 -1.1400000000000001 0 0 1.1400000000000001 -1.1400000000000001 0 0 1.1475 -1.1475 0 0 1.1400000000000001 -1.1400000000000001 0 0 1.1475 -1.1475 0 0 1.1400000000000001 -1.1400000000000001 0 0 1.1400000000000001 -1.1400000000000001 0 0 2.2874999999999996z" fill="currentColor" stroke-width="0.75"></path><path d="m19.99875 22.86 -4.5675 0 0 -5.715 -1.1475 0 0 6.855 6.855 0 0 -10.290000000000001 -1.1400000000000001 0 0 9.149999999999999z" fill="currentColor" stroke-width="0.75"></path><path d="M18.85875 12.57h1.1400000000000001v1.1400000000000001h-1.1400000000000001Z" fill="currentColor" stroke-width="0.75"></path><path d="M17.71125 11.43h1.1475v1.1400000000000001h-1.1475Z" fill="currentColor" stroke-width="0.75"></path><path d="M16.57125 10.2825h1.1400000000000001v1.1475h-1.1400000000000001Z" fill="currentColor" stroke-width="0.75"></path><path d="M15.431249999999999 9.1425h1.1400000000000001v1.1400000000000001h-1.1400000000000001Z" fill="currentColor" stroke-width="0.75"></path><path d="M14.283750000000001 8.0025h1.1475v1.1400000000000001h-1.1475Z" fill="currentColor" stroke-width="0.75"></path><path d="M13.143749999999999 15.997499999999999h1.1400000000000001v1.1475h-1.1400000000000001Z" fill="currentColor" stroke-width="0.75"></path><path d="M13.143749999999999 6.855h1.1400000000000001v1.1475h-1.1400000000000001Z" fill="currentColor" stroke-width="0.75"></path><path d="M10.85625 14.857499999999998h2.2874999999999996v1.1400000000000001h-2.2874999999999996Z" fill="currentColor" stroke-width="0.75"></path><path d="M10.85625 5.715h2.2874999999999996v1.1400000000000001h-2.2874999999999996Z" fill="currentColor" stroke-width="0.75"></path><path d="M9.71625 15.997499999999999h1.1400000000000001v1.1475h-1.1400000000000001Z" fill="currentColor" stroke-width="0.75"></path><path d="M9.71625 6.855h1.1400000000000001v1.1475h-1.1400000000000001Z" fill="currentColor" stroke-width="0.75"></path><path d="m9.71625 17.145 -1.1475 0 0 5.715 -4.5675 0 0 -9.149999999999999 -1.1475 0 0 10.290000000000001 6.862500000000001 0 0 -6.855z" fill="currentColor" stroke-width="0.75"></path><path d="M8.568750000000001 8.0025h1.1475v1.1400000000000001h-1.1475Z" fill="currentColor" stroke-width="0.75"></path><path d="M7.428749999999999 9.1425h1.1400000000000001v1.1400000000000001h-1.1400000000000001Z" fill="currentColor" stroke-width="0.75"></path><path d="M6.28875 10.2825h1.1400000000000001v1.1475h-1.1400000000000001Z" fill="currentColor" stroke-width="0.75"></path><path d="M5.14125 11.43h1.1475v1.1400000000000001h-1.1475Z" fill="currentColor" stroke-width="0.75"></path><path d="M4.00125 12.57h1.1400000000000001v1.1400000000000001h-1.1400000000000001Z" fill="currentColor" stroke-width="0.75"></path></g></svg>