<svg xmlns="http://www.w3.org/2000/svg" viewBox="0 0 24 24" id="Social-Rewards-Certified-Diploma--Streamline-Pixel" ><desc>Social Rewards Certified Diploma Streamline Icon: https://streamlinehq.com</desc><title>social-rewards-certified-diploma</title><g><path d="m22.86 17.715 -1.1475 0 0 1.1400000000000001 2.2874999999999996 0 0 -4.5675 -1.1400000000000001 0 0 3.4275z" fill="currentColor" stroke-width="0.75"></path><path d="M22.86 10.852500000000001H24V12h-1.1400000000000001Z" fill="currentColor" stroke-width="0.75"></path><path d="m0 0.5700000000000001 0 18.285 11.43 0 0 -1.1400000000000001 -10.290000000000001 0 0 -16.005 21.72 0 0 6.862500000000001 1.1400000000000001 0L24 0.5700000000000001l-24 0z" fill="currentColor" stroke-width="0.75"></path><path d="M21.7125 12h1.1475v1.1400000000000001h-1.1475Z" fill="currentColor" stroke-width="0.75"></path><path d="M21.7125 9.712499999999999h1.1475v1.1400000000000001h-1.1475Z" fill="currentColor" stroke-width="0.75"></path><path d="m20.572499999999998 15.4275 -2.2874999999999996 0 0 1.1400000000000001 -1.1400000000000001 0 0 1.1475 -1.1475 0 0 -1.1475 -1.1400000000000001 0 0 -1.1400000000000001 -2.2874999999999996 0 0 -2.2874999999999996 -1.1400000000000001 0 0 3.4275 1.1400000000000001 0 0 6.862500000000001 2.2874999999999996 0 0 -1.1475 1.1400000000000001 0 0 -1.1400000000000001 1.1475 0 0 1.1400000000000001 1.1400000000000001 0 0 1.1475 2.2874999999999996 0 0 -6.862500000000001 1.1400000000000001 0 0 -3.4275 -1.1400000000000001 0 0 2.2874999999999996z" fill="currentColor" stroke-width="0.75"></path><path d="m21.7125 5.1450000000000005 0 -2.2874999999999996 -3.4275 0 0 1.1400000000000001 2.2874999999999996 0 0 1.1475 1.1400000000000001 0z" fill="currentColor" stroke-width="0.75"></path><path d="M19.424999999999997 9.712499999999999h1.1475v3.4275H19.424999999999997Z" fill="currentColor" stroke-width="0.75"></path><path d="M18.285 13.14h1.1400000000000001v1.1475h-1.1400000000000001Z" fill="currentColor" stroke-width="0.75"></path><path d="M18.285 8.5725h1.1400000000000001v1.1400000000000001h-1.1400000000000001Z" fill="currentColor" stroke-width="0.75"></path><path d="m20.572499999999998 7.425000000000001 0 2.2874999999999996 1.1400000000000001 0 0 -3.4275 -3.4275 0 0 1.1400000000000001 2.2874999999999996 0z" fill="currentColor" stroke-width="0.75"></path><path d="M14.857499999999998 14.287500000000001h3.4275v1.1400000000000001h-3.4275Z" fill="currentColor" stroke-width="0.75"></path><path d="M17.145 5.1450000000000005h1.1400000000000001v1.1400000000000001h-1.1400000000000001Z" fill="currentColor" stroke-width="0.75"></path><path d="M15.997499999999999 3.9975h1.1475v1.1475h-1.1475Z" fill="currentColor" stroke-width="0.75"></path><path d="M14.857499999999998 7.425000000000001h3.4275v1.1475h-3.4275Z" fill="currentColor" stroke-width="0.75"></path><path d="M14.857499999999998 5.1450000000000005h1.1400000000000001v1.1400000000000001h-1.1400000000000001Z" fill="currentColor" stroke-width="0.75"></path><path d="M13.7175 13.14h1.1400000000000001v1.1475h-1.1400000000000001Z" fill="currentColor" stroke-width="0.75"></path><path d="M13.7175 8.5725h1.1400000000000001v1.1400000000000001h-1.1400000000000001Z" fill="currentColor" stroke-width="0.75"></path><path d="M12.57 9.712499999999999h1.1475v3.4275h-1.1475Z" fill="currentColor" stroke-width="0.75"></path><path d="m12.57 7.425000000000001 2.2874999999999996 0 0 -1.1400000000000001 -3.4275 0 0 3.4275 1.1400000000000001 0 0 -2.2874999999999996z" fill="currentColor" stroke-width="0.75"></path><path d="M10.2825 12h1.1475v1.1400000000000001h-1.1475Z" fill="currentColor" stroke-width="0.75"></path><path d="M10.2825 9.712499999999999h1.1475v1.1400000000000001h-1.1475Z" fill="currentColor" stroke-width="0.75"></path><path d="M9.1425 10.852500000000001h1.1400000000000001V12h-1.1400000000000001Z" fill="currentColor" stroke-width="0.75"></path><path d="m14.857499999999998 3.9975 0 -1.1400000000000001 -12.57 0 0 13.71 7.995 0 0 -1.1400000000000001 -6.855 0 0 -11.43 11.43 0z" fill="currentColor" stroke-width="0.75"></path><path d="M4.574999999999999 9.712499999999999h3.4275v1.1400000000000001H4.574999999999999Z" fill="currentColor" stroke-width="0.75"></path><path d="M4.574999999999999 5.1450000000000005h3.4275v3.4275H4.574999999999999Z" fill="currentColor" stroke-width="0.75"></path><path d="M4.574999999999999 12h3.4275v1.1400000000000001H4.574999999999999Z" fill="currentColor" stroke-width="0.75"></path></g></svg>