<svg xmlns="http://www.w3.org/2000/svg" viewBox="0 0 24 24" id="Weather-Umbrella-Snowing--Streamline-Pixel" ><desc>Weather Umbrella Snowing Streamline Icon: https://streamlinehq.com</desc><title>weather-umbrella-snowing</title><g><path d="M21.71625 2.2874999999999996h1.1400000000000001v1.1400000000000001h-1.1400000000000001Z" fill="currentColor" stroke-width="0.75"></path><path d="m20.576249999999998 14.857499999999998 -4.574999999999999 0 0 -3.4275 -1.1400000000000001 0 0 3.4275 -5.715 0 0 -3.4275 -1.1475 0 0 3.4275 -4.5675 0 0 -2.2800000000000002 -1.1400000000000001 0 0 3.4275 9.1425 0 0 6.855 1.1400000000000001 0 0 -6.855 9.1425 0 0 -3.4275 -1.1400000000000001 0 0 2.2800000000000002z" fill="currentColor" stroke-width="0.75"></path><path d="M20.576249999999998 6.862500000000001h2.2800000000000002v2.2800000000000002h-2.2800000000000002Z" fill="currentColor" stroke-width="0.75"></path><path d="M19.42875 10.290000000000001h1.1475v2.2874999999999996h-1.1475Z" fill="currentColor" stroke-width="0.75"></path><path d="M19.42875 0h1.1475v1.1475h-1.1475Z" fill="currentColor" stroke-width="0.75"></path><path d="M18.28875 9.1425h1.1400000000000001v1.1475h-1.1400000000000001Z" fill="currentColor" stroke-width="0.75"></path><path d="M17.14125 4.574999999999999h1.1475v1.1400000000000001h-1.1475Z" fill="currentColor" stroke-width="0.75"></path><path d="M16.00125 8.0025h2.2874999999999996v1.1400000000000001h-2.2874999999999996Z" fill="currentColor" stroke-width="0.75"></path><path d="M13.713750000000001 1.1475h2.2874999999999996v2.2800000000000002h-2.2874999999999996Z" fill="currentColor" stroke-width="0.75"></path><path d="M13.713750000000001 9.1425h1.1475v2.2874999999999996h-1.1475Z" fill="currentColor" stroke-width="0.75"></path><path d="M9.14625 22.86h2.2874999999999996V24h-2.2874999999999996Z" fill="currentColor" stroke-width="0.75"></path><path d="M9.14625 9.1425h1.1400000000000001v2.2874999999999996h-1.1400000000000001Z" fill="currentColor" stroke-width="0.75"></path><path d="m10.286249999999999 9.1425 1.1475 0 0 -1.1400000000000001 1.1400000000000001 0 0 1.1400000000000001 1.1400000000000001 0 0 -1.1400000000000001 2.2874999999999996 0 0 -1.1400000000000001 -3.4275 0 0 -1.1475 -1.1400000000000001 0 0 1.1475 -3.435 0 0 1.1400000000000001 2.2874999999999996 0 0 1.1400000000000001z" fill="currentColor" stroke-width="0.75"></path><path d="M9.14625 2.2874999999999996h1.1400000000000001v1.1400000000000001h-1.1400000000000001Z" fill="currentColor" stroke-width="0.75"></path><path d="M7.998749999999999 21.72h1.1475v1.1400000000000001h-1.1475Z" fill="currentColor" stroke-width="0.75"></path><path d="M5.71875 8.0025h2.2800000000000002v1.1400000000000001h-2.2800000000000002Z" fill="currentColor" stroke-width="0.75"></path><path d="M5.71875 0h1.1400000000000001v1.1475h-1.1400000000000001Z" fill="currentColor" stroke-width="0.75"></path><path d="M4.57125 9.1425h1.1475v1.1475h-1.1475Z" fill="currentColor" stroke-width="0.75"></path><path d="M3.4312500000000004 10.290000000000001h1.1400000000000001v2.2874999999999996h-1.1400000000000001Z" fill="currentColor" stroke-width="0.75"></path><path d="M3.4312500000000004 4.574999999999999h2.2874999999999996v2.2874999999999996h-2.2874999999999996Z" fill="currentColor" stroke-width="0.75"></path><path d="M2.2912500000000002 1.1475h1.1400000000000001v1.1400000000000001h-1.1400000000000001Z" fill="currentColor" stroke-width="0.75"></path><path d="M1.1437499999999998 6.862500000000001h1.1475v1.1400000000000001h-1.1475Z" fill="currentColor" stroke-width="0.75"></path></g></svg>