<svg xmlns="http://www.w3.org/2000/svg" viewBox="0 0 24 24" id="Weather-Snowman--Streamline-Pixel" ><desc>Weather Snowman Streamline Icon: https://streamlinehq.com</desc><title>weather-snowman</title><g><path d="M19.4325 14.857499999999998h1.1400000000000001v3.4275h-1.1400000000000001Z" fill="currentColor" stroke-width="0.75"></path><path d="M18.285 18.285h1.1475v2.2874999999999996h-1.1475Z" fill="currentColor" stroke-width="0.75"></path><path d="M18.285 12.5775h1.1475v2.2800000000000002h-1.1475Z" fill="currentColor" stroke-width="0.75"></path><path d="M17.145 20.572499999999998h1.1400000000000001v1.1475h-1.1400000000000001Z" fill="currentColor" stroke-width="0.75"></path><path d="M17.145 11.43h1.1400000000000001v1.1475h-1.1400000000000001Z" fill="currentColor" stroke-width="0.75"></path><path d="M15.997499999999999 10.290000000000001h1.1475v1.1400000000000001h-1.1475Z" fill="currentColor" stroke-width="0.75"></path><path d="M14.857499999999998 21.72h2.2874999999999996v1.1400000000000001h-2.2874999999999996Z" fill="currentColor" stroke-width="0.75"></path><path d="M14.857499999999998 9.1425h1.1400000000000001v1.1475h-1.1400000000000001Z" fill="currentColor" stroke-width="0.75"></path><path d="M13.7175 5.715h1.1400000000000001v1.1475h-1.1400000000000001Z" fill="currentColor" stroke-width="0.75"></path><path d="M9.1425 22.86h5.715V24h-5.715Z" fill="currentColor" stroke-width="0.75"></path><path d="m12.57 18.285 -1.1400000000000001 0 0 1.1475 -1.1400000000000001 0 0 1.1400000000000001 1.1400000000000001 0 0 1.1475 1.1400000000000001 0 0 -1.1475 1.1475 0 0 -1.1400000000000001 -1.1475 0 0 -1.1475z" fill="currentColor" stroke-width="0.75"></path><path d="m12.57 12.5775 -1.1400000000000001 0 0 1.1400000000000001 -1.1400000000000001 0 0 1.1400000000000001 1.1400000000000001 0 0 1.1475 1.1400000000000001 0 0 -1.1475 1.1475 0 0 -1.1400000000000001 -1.1475 0 0 -1.1400000000000001z" fill="currentColor" stroke-width="0.75"></path><path d="M10.290000000000001 8.0025h3.4275v1.1400000000000001h-3.4275Z" fill="currentColor" stroke-width="0.75"></path><path d="m14.857499999999998 3.4275 0 1.1475 1.1400000000000001 0 0 4.5675 1.1475 0 0 -3.4275 1.1400000000000001 0 0 -1.1400000000000001 1.1475 0 0 -2.2874999999999996 -1.1475 0 0 -1.1400000000000001 -1.1400000000000001 0 0 -1.1475 -2.2874999999999996 0 0 1.1475 -1.1400000000000001 0 0 1.1400000000000001 -4.574999999999999 0 0 1.1400000000000001 5.715 0z" fill="currentColor" stroke-width="0.75"></path><path d="M9.1425 5.715h1.1475v1.1475h-1.1475Z" fill="currentColor" stroke-width="0.75"></path><path d="M6.855 21.72h2.2874999999999996v1.1400000000000001H6.855Z" fill="currentColor" stroke-width="0.75"></path><path d="M8.0025 9.1425h1.1400000000000001v1.1475h-1.1400000000000001Z" fill="currentColor" stroke-width="0.75"></path><path d="M8.0025 3.4275h1.1400000000000001V4.574999999999999h-1.1400000000000001Z" fill="currentColor" stroke-width="0.75"></path><path d="M6.855 10.290000000000001h1.1475v1.1400000000000001H6.855Z" fill="currentColor" stroke-width="0.75"></path><path d="M6.855 4.574999999999999h1.1475v4.5675H6.855Z" fill="currentColor" stroke-width="0.75"></path><path d="M5.715 20.572499999999998h1.1400000000000001v1.1475H5.715Z" fill="currentColor" stroke-width="0.75"></path><path d="M5.715 11.43h1.1400000000000001v1.1475H5.715Z" fill="currentColor" stroke-width="0.75"></path><path d="M4.574999999999999 18.285h1.1400000000000001v2.2874999999999996H4.574999999999999Z" fill="currentColor" stroke-width="0.75"></path><path d="M4.574999999999999 12.5775h1.1400000000000001v2.2800000000000002H4.574999999999999Z" fill="currentColor" stroke-width="0.75"></path><path d="M3.4275 14.857499999999998H4.574999999999999v3.4275H3.4275Z" fill="currentColor" stroke-width="0.75"></path></g></svg>