<svg xmlns="http://www.w3.org/2000/svg" viewBox="0 0 24 24" id="Weather-Wind-Flag--Streamline-Pixel" ><desc>Weather Wind Flag Streamline Icon: https://streamlinehq.com</desc><title>weather-wind-flag</title><g><path d="M22.8525 3.4275H24v9.149999999999999h-1.1475Z" fill="currentColor" stroke-width="0.75"></path><path d="M21.7125 12.5775h1.1400000000000001v1.1400000000000001h-1.1400000000000001Z" fill="currentColor" stroke-width="0.75"></path><path d="M21.7125 2.2874999999999996h1.1400000000000001v1.1400000000000001h-1.1400000000000001Z" fill="currentColor" stroke-width="0.75"></path><path d="M20.572499999999998 13.7175h1.1400000000000001v1.1400000000000001h-1.1400000000000001Z" fill="currentColor" stroke-width="0.75"></path><path d="M20.572499999999998 1.1475h1.1400000000000001v1.1400000000000001h-1.1400000000000001Z" fill="currentColor" stroke-width="0.75"></path><path d="m20.572499999999998 3.4275 -2.2874999999999996 0 0 1.1475 -1.1475 0 0 6.855 1.1475 0 0 1.1475 2.2874999999999996 0 0 -1.1475 1.1400000000000001 0 0 -6.855 -1.1400000000000001 0 0 -1.1475z" fill="currentColor" stroke-width="0.75"></path><path d="m18.285 13.7175 -1.1475 0 0 1.1400000000000001 -2.2800000000000002 0 0 1.1475 3.4275 0 0 7.995 1.1400000000000001 0 0 -7.995 1.1475 0 0 -1.1475 -2.2874999999999996 0 0 -1.1400000000000001z" fill="currentColor" stroke-width="0.75"></path><path d="M15.997499999999999 12.5775h1.1400000000000001v1.1400000000000001h-1.1400000000000001Z" fill="currentColor" stroke-width="0.75"></path><path d="M15.997499999999999 2.2874999999999996h1.1400000000000001v1.1400000000000001h-1.1400000000000001Z" fill="currentColor" stroke-width="0.75"></path><path d="m17.137500000000003 2.2874999999999996 1.1475 0 0 -1.1400000000000001 2.2874999999999996 0 0 -1.1475 -5.715 0 0 1.1475 2.2800000000000002 0 0 1.1400000000000001z" fill="currentColor" stroke-width="0.75"></path><path d="M13.71 20.572499999999998h3.4275v1.1475h-3.4275Z" fill="currentColor" stroke-width="0.75"></path><path d="M14.857499999999998 3.4275h1.1400000000000001v9.149999999999999h-1.1400000000000001Z" fill="currentColor" stroke-width="0.75"></path><path d="M11.43 13.7175h3.4275v1.1400000000000001h-3.4275Z" fill="currentColor" stroke-width="0.75"></path><path d="M10.2825 19.4325h3.4275v1.1400000000000001h-3.4275Z" fill="currentColor" stroke-width="0.75"></path><path d="M11.43 1.1475h3.4275v1.1400000000000001h-3.4275Z" fill="currentColor" stroke-width="0.75"></path><path d="m11.43 2.2874999999999996 -1.1475 0 0 1.1400000000000001 -3.4275 0 0 1.1475 3.4275 0 0 6.855 -3.4275 0 0 1.1475 3.4275 0 0 1.1400000000000001 1.1475 0 0 -11.43z" fill="currentColor" stroke-width="0.75"></path><path d="M7.995 20.572499999999998h2.2874999999999996v1.1475h-2.2874999999999996Z" fill="currentColor" stroke-width="0.75"></path><path d="M6.855 16.005h3.4275v1.1400000000000001H6.855Z" fill="currentColor" stroke-width="0.75"></path><path d="M5.715 14.857499999999998h1.1400000000000001v1.1475H5.715Z" fill="currentColor" stroke-width="0.75"></path><path d="m6.855 4.574999999999999 -1.1400000000000001 0 0 1.1400000000000001 -2.2874999999999996 0 0 1.1475 2.2874999999999996 0 0 2.2800000000000002 -2.2874999999999996 0 0 1.1475 2.2874999999999996 0 0 1.1400000000000001 1.1400000000000001 0 0 -6.855z" fill="currentColor" stroke-width="0.75"></path><path d="M2.2874999999999996 13.7175h3.4275v1.1400000000000001H2.2874999999999996Z" fill="currentColor" stroke-width="0.75"></path><path d="M3.4275 2.2874999999999996h2.2874999999999996v1.1400000000000001H3.4275Z" fill="currentColor" stroke-width="0.75"></path><path d="M2.2874999999999996 6.862500000000001h1.1400000000000001v2.2800000000000002H2.2874999999999996Z" fill="currentColor" stroke-width="0.75"></path><path d="M1.1400000000000001 1.1475h2.2874999999999996v1.1400000000000001H1.1400000000000001Z" fill="currentColor" stroke-width="0.75"></path><path d="M0 14.857499999999998h2.2874999999999996v1.1475H0Z" fill="currentColor" stroke-width="0.75"></path><path d="M0 2.2874999999999996h1.1400000000000001v1.1400000000000001H0Z" fill="currentColor" stroke-width="0.75"></path></g></svg>