<svg xmlns="http://www.w3.org/2000/svg" viewBox="0 0 24 24" id="Weather-Cloud-Sun-Fine--Streamline-Pixel" ><desc>Weather Cloud Sun Fine Streamline Icon: https://streamlinehq.com</desc><title>weather-cloud-sun-fine</title><g><path d="M22.8525 14.29125H24v4.5675h-1.1475Z" fill="currentColor" stroke-width="0.75"></path><path d="M21.7125 8.57625H24v1.1400000000000001h-2.2874999999999996Z" fill="currentColor" stroke-width="0.75"></path><path d="M21.7125 18.85875h1.1400000000000001v1.1475h-1.1400000000000001Z" fill="currentColor" stroke-width="0.75"></path><path d="M21.7125 13.143749999999999h1.1400000000000001v1.1475h-1.1400000000000001Z" fill="currentColor" stroke-width="0.75"></path><path d="M21.7125 2.86125h1.1400000000000001v1.1400000000000001h-1.1400000000000001Z" fill="currentColor" stroke-width="0.75"></path><path d="M20.572499999999998 20.00625h1.1400000000000001v1.1400000000000001h-1.1400000000000001Z" fill="currentColor" stroke-width="0.75"></path><path d="M20.572499999999998 12.00375h1.1400000000000001v1.1400000000000001h-1.1400000000000001Z" fill="currentColor" stroke-width="0.75"></path><path d="M20.572499999999998 4.00125h1.1400000000000001v1.1475h-1.1400000000000001Z" fill="currentColor" stroke-width="0.75"></path><path d="M2.2874999999999996 21.146250000000002h18.285v1.1400000000000001H2.2874999999999996Z" fill="currentColor" stroke-width="0.75"></path><path d="M15.997499999999999 12.00375h1.1400000000000001v1.1400000000000001h-1.1400000000000001Z" fill="currentColor" stroke-width="0.75"></path><path d="M15.997499999999999 1.71375h1.1400000000000001v2.2874999999999996h-1.1400000000000001Z" fill="currentColor" stroke-width="0.75"></path><path d="M14.857499999999998 13.143749999999999h1.1400000000000001v1.1475h-1.1400000000000001Z" fill="currentColor" stroke-width="0.75"></path><path d="M11.43 4.00125h1.1400000000000001v1.1475h-1.1400000000000001Z" fill="currentColor" stroke-width="0.75"></path><path d="M10.2825 2.86125h1.1475v1.1400000000000001h-1.1475Z" fill="currentColor" stroke-width="0.75"></path><path d="m10.2825 7.428749999999999 3.4275 0 0 1.1475 2.2874999999999996 0 0 1.1400000000000001 1.1400000000000001 0 0 2.2874999999999996 3.435 0 0 -4.574999999999999 -1.1475 0 0 -1.1400000000000001 -1.1400000000000001 0 0 -1.1400000000000001 -3.4275 0 0 1.1400000000000001 -5.715 0 0 1.1400000000000001 -1.1475 0 0 1.1475 2.2874999999999996 0 0 -1.1475z" fill="currentColor" stroke-width="0.75"></path><path d="M7.995 14.29125h1.1475v1.1400000000000001h-1.1475Z" fill="currentColor" stroke-width="0.75"></path><path d="M6.855 13.143749999999999h1.1400000000000001v1.1475H6.855Z" fill="currentColor" stroke-width="0.75"></path><path d="M6.855 8.57625h1.1400000000000001v1.1400000000000001H6.855Z" fill="currentColor" stroke-width="0.75"></path><path d="m6.855 13.143749999999999 0 -3.4275 -1.1400000000000001 0 0 2.2874999999999996 -3.4275 0 0 1.1400000000000001 4.5675 0z" fill="currentColor" stroke-width="0.75"></path><path d="M1.1400000000000001 20.00625h1.1475v1.1400000000000001H1.1400000000000001Z" fill="currentColor" stroke-width="0.75"></path><path d="M1.1400000000000001 13.143749999999999h1.1475v1.1475H1.1400000000000001Z" fill="currentColor" stroke-width="0.75"></path><path d="M0 14.29125h1.1400000000000001v5.715H0Z" fill="currentColor" stroke-width="0.75"></path></g></svg>